<mxfile host="app.diagrams.net" modified="2024-03-27T05:17:49.679Z" agent="Mozilla/5.0 (Windows NT 10.0; Win64; x64) AppleWebKit/537.36 (KHTML, like Gecko) Chrome/123.0.0.0 Safari/537.36" etag="OVTJR9zurpgQ0Xi6Injs" version="24.1.0" type="device">
  <diagram name="Page-1" id="PZTqaAViUj0GkJwfOsij">
    <mxGraphModel dx="1050" dy="565" grid="0" gridSize="10" guides="1" tooltips="1" connect="1" arrows="1" fold="1" page="0" pageScale="1" pageWidth="1100" pageHeight="850" math="0" shadow="0">
      <root>
        <mxCell id="0" />
        <mxCell id="1" parent="0" />
        <mxCell id="PENeMZDu9xXlpUDBOP-r-2" value="" style="rounded=0;whiteSpace=wrap;html=1;fillColor=#dae8fc;strokeColor=#6c8ebf;" parent="1" vertex="1">
          <mxGeometry x="40" y="130" width="290" height="319" as="geometry" />
        </mxCell>
        <mxCell id="PENeMZDu9xXlpUDBOP-r-4" value="&lt;font style=&quot;font-size: 24px;&quot;&gt;Login&lt;/font&gt;" style="text;html=1;align=center;verticalAlign=middle;whiteSpace=wrap;rounded=0;" parent="1" vertex="1">
          <mxGeometry x="85" y="170" width="190" height="30" as="geometry" />
        </mxCell>
        <mxCell id="PENeMZDu9xXlpUDBOP-r-5" value="&amp;nbsp;Username/Email adress" style="rounded=1;whiteSpace=wrap;html=1;align=left;" parent="1" vertex="1">
          <mxGeometry x="65" y="230" width="240" height="40" as="geometry" />
        </mxCell>
        <mxCell id="PENeMZDu9xXlpUDBOP-r-6" value="&amp;nbsp;Password" style="rounded=1;whiteSpace=wrap;html=1;align=left;" parent="1" vertex="1">
          <mxGeometry x="65" y="290" width="240" height="40" as="geometry" />
        </mxCell>
        <mxCell id="PENeMZDu9xXlpUDBOP-r-7" value="&lt;font style=&quot;font-size: 14px;&quot;&gt;Have no account ? &lt;b&gt;&lt;font color=&quot;#d41750&quot;&gt;&lt;u&gt;SignUp&lt;/u&gt;&lt;/font&gt;&lt;/b&gt;&lt;/font&gt;" style="text;html=1;align=center;verticalAlign=middle;whiteSpace=wrap;rounded=0;" parent="1" vertex="1">
          <mxGeometry x="65" y="342" width="230" height="30" as="geometry" />
        </mxCell>
        <mxCell id="kc-rsHX5RpPGUYvPVodn-2" value="&lt;b&gt;&lt;u&gt;Forget Password&lt;/u&gt;&lt;/b&gt;" style="text;html=1;align=center;verticalAlign=middle;whiteSpace=wrap;rounded=0;" parent="1" vertex="1">
          <mxGeometry x="127.5" y="375" width="105" height="30" as="geometry" />
        </mxCell>
        <mxCell id="kc-rsHX5RpPGUYvPVodn-3" value="" style="rounded=0;whiteSpace=wrap;html=1;fillColor=#dae8fc;strokeColor=#6c8ebf;" parent="1" vertex="1">
          <mxGeometry x="397" y="130" width="290" height="360" as="geometry" />
        </mxCell>
        <mxCell id="kc-rsHX5RpPGUYvPVodn-4" value="&lt;font style=&quot;font-size: 24px;&quot;&gt;Login&lt;/font&gt;" style="text;html=1;align=center;verticalAlign=middle;whiteSpace=wrap;rounded=0;" parent="1" vertex="1">
          <mxGeometry x="440" y="163" width="190" height="30" as="geometry" />
        </mxCell>
        <mxCell id="kc-rsHX5RpPGUYvPVodn-5" value="&amp;nbsp;Username/Email adress" style="rounded=1;whiteSpace=wrap;html=1;align=left;" parent="1" vertex="1">
          <mxGeometry x="415" y="213" width="240" height="40" as="geometry" />
        </mxCell>
        <mxCell id="kc-rsHX5RpPGUYvPVodn-6" value="&amp;nbsp;Password" style="rounded=1;whiteSpace=wrap;html=1;align=left;" parent="1" vertex="1">
          <mxGeometry x="415" y="270" width="240" height="40" as="geometry" />
        </mxCell>
        <mxCell id="kc-rsHX5RpPGUYvPVodn-7" value="&lt;font style=&quot;font-size: 12px;&quot;&gt;Username/Email and password don&#39;t match&amp;nbsp;&lt;/font&gt;" style="rounded=0;whiteSpace=wrap;html=1;align=right;fillColor=#f8cecc;strokeColor=#b85450;" parent="1" vertex="1">
          <mxGeometry x="397" y="342" width="289" height="43" as="geometry" />
        </mxCell>
        <mxCell id="kc-rsHX5RpPGUYvPVodn-15" style="edgeStyle=orthogonalEdgeStyle;rounded=0;orthogonalLoop=1;jettySize=auto;html=1;" parent="1" source="kc-rsHX5RpPGUYvPVodn-8" edge="1">
          <mxGeometry relative="1" as="geometry">
            <mxPoint x="116.40005493164062" y="523.4000244140625" as="targetPoint" />
            <Array as="points">
              <mxPoint x="288" y="475" />
              <mxPoint x="116" y="475" />
            </Array>
          </mxGeometry>
        </mxCell>
        <mxCell id="kc-rsHX5RpPGUYvPVodn-8" value="&lt;b&gt;Login&lt;/b&gt;" style="rounded=0;whiteSpace=wrap;html=1;fillColor=#008a00;fontColor=#ffffff;strokeColor=#005700;" parent="1" vertex="1">
          <mxGeometry x="258" y="414" width="59" height="26" as="geometry" />
        </mxCell>
        <mxCell id="kc-rsHX5RpPGUYvPVodn-9" value="&lt;b&gt;Cancel&lt;/b&gt;" style="rounded=0;whiteSpace=wrap;html=1;fillColor=#e51400;fontColor=#ffffff;strokeColor=#B20000;" parent="1" vertex="1">
          <mxGeometry x="46" y="414" width="59" height="26" as="geometry" />
        </mxCell>
        <mxCell id="kc-rsHX5RpPGUYvPVodn-10" value="&lt;b&gt;Login&lt;/b&gt;" style="rounded=0;whiteSpace=wrap;html=1;fillColor=#008a00;fontColor=#ffffff;strokeColor=#005700;" parent="1" vertex="1">
          <mxGeometry x="616" y="442" width="59" height="26" as="geometry" />
        </mxCell>
        <mxCell id="kc-rsHX5RpPGUYvPVodn-11" value="&lt;b&gt;Cancel&lt;/b&gt;" style="rounded=0;whiteSpace=wrap;html=1;fillColor=#e51400;fontColor=#ffffff;strokeColor=#B20000;" parent="1" vertex="1">
          <mxGeometry x="407" y="442" width="59" height="26" as="geometry" />
        </mxCell>
        <mxCell id="kc-rsHX5RpPGUYvPVodn-13" value="&lt;b&gt;&lt;u&gt;Forget Password&lt;/u&gt;&lt;/b&gt;" style="text;html=1;align=center;verticalAlign=middle;whiteSpace=wrap;rounded=0;" parent="1" vertex="1">
          <mxGeometry x="489.5" y="398" width="105" height="30" as="geometry" />
        </mxCell>
        <mxCell id="kc-rsHX5RpPGUYvPVodn-51" style="edgeStyle=orthogonalEdgeStyle;rounded=0;orthogonalLoop=1;jettySize=auto;html=1;exitX=1;exitY=0.75;exitDx=0;exitDy=0;" parent="1" source="kc-rsHX5RpPGUYvPVodn-14" edge="1">
          <mxGeometry relative="1" as="geometry">
            <mxPoint x="910" y="320" as="targetPoint" />
            <Array as="points">
              <mxPoint x="160" y="540" />
              <mxPoint x="911" y="540" />
            </Array>
          </mxGeometry>
        </mxCell>
        <mxCell id="kc-rsHX5RpPGUYvPVodn-52" value="&lt;font style=&quot;font-size: 14px;&quot;&gt;&lt;b&gt;Correct&lt;/b&gt;&lt;/font&gt;" style="edgeLabel;html=1;align=center;verticalAlign=middle;resizable=0;points=[];" parent="kc-rsHX5RpPGUYvPVodn-51" vertex="1" connectable="0">
          <mxGeometry x="-0.005" y="4" relative="1" as="geometry">
            <mxPoint as="offset" />
          </mxGeometry>
        </mxCell>
        <mxCell id="kc-rsHX5RpPGUYvPVodn-14" value="&lt;font style=&quot;font-size: 14px;&quot;&gt;&lt;b&gt;Database&lt;/b&gt;&lt;/font&gt;" style="rounded=0;whiteSpace=wrap;html=1;fillColor=#76608a;fontColor=#ffffff;strokeColor=#432D57;" parent="1" vertex="1">
          <mxGeometry x="40" y="527" width="120" height="60" as="geometry" />
        </mxCell>
        <mxCell id="kc-rsHX5RpPGUYvPVodn-16" style="edgeStyle=orthogonalEdgeStyle;rounded=0;orthogonalLoop=1;jettySize=auto;html=1;entryX=0.434;entryY=0.995;entryDx=0;entryDy=0;entryPerimeter=0;" parent="1" source="kc-rsHX5RpPGUYvPVodn-14" target="kc-rsHX5RpPGUYvPVodn-3" edge="1">
          <mxGeometry relative="1" as="geometry">
            <Array as="points">
              <mxPoint x="523" y="557" />
            </Array>
          </mxGeometry>
        </mxCell>
        <mxCell id="kc-rsHX5RpPGUYvPVodn-17" value="&lt;font style=&quot;font-size: 14px;&quot;&gt;&lt;b&gt;Wrong&lt;/b&gt;&lt;/font&gt;" style="edgeLabel;html=1;align=center;verticalAlign=middle;resizable=0;points=[];" parent="kc-rsHX5RpPGUYvPVodn-16" vertex="1" connectable="0">
          <mxGeometry x="-0.2087" y="-2" relative="1" as="geometry">
            <mxPoint x="-1" y="-5" as="offset" />
          </mxGeometry>
        </mxCell>
        <mxCell id="kc-rsHX5RpPGUYvPVodn-19" value="" style="rounded=0;whiteSpace=wrap;html=1;fillColor=#dae8fc;strokeColor=#6c8ebf;" parent="1" vertex="1">
          <mxGeometry x="220" y="592.5" width="260" height="267.5" as="geometry" />
        </mxCell>
        <mxCell id="kc-rsHX5RpPGUYvPVodn-20" value="&lt;font style=&quot;font-size: 18px;&quot;&gt;Enter your Email address&lt;/font&gt;" style="text;html=1;align=center;verticalAlign=middle;whiteSpace=wrap;rounded=0;" parent="1" vertex="1">
          <mxGeometry x="225" y="620" width="250" height="30" as="geometry" />
        </mxCell>
        <mxCell id="kc-rsHX5RpPGUYvPVodn-21" value="&amp;nbsp;Email address" style="rounded=1;whiteSpace=wrap;html=1;align=left;" parent="1" vertex="1">
          <mxGeometry x="240" y="660" width="220" height="30" as="geometry" />
        </mxCell>
        <mxCell id="kc-rsHX5RpPGUYvPVodn-22" value="&lt;b&gt;Send OTP&lt;/b&gt;" style="rounded=0;whiteSpace=wrap;html=1;fillColor=#008a00;fontColor=#ffffff;strokeColor=#005700;" parent="1" vertex="1">
          <mxGeometry x="305" y="700" width="74" height="20" as="geometry" />
        </mxCell>
        <mxCell id="kc-rsHX5RpPGUYvPVodn-25" value="&amp;nbsp;Type OTP" style="rounded=1;whiteSpace=wrap;html=1;align=left;" parent="1" vertex="1">
          <mxGeometry x="240" y="730" width="220" height="30" as="geometry" />
        </mxCell>
        <mxCell id="kc-rsHX5RpPGUYvPVodn-45" style="edgeStyle=orthogonalEdgeStyle;rounded=0;orthogonalLoop=1;jettySize=auto;html=1;entryX=0;entryY=0.5;entryDx=0;entryDy=0;" parent="1" source="kc-rsHX5RpPGUYvPVodn-26" target="kc-rsHX5RpPGUYvPVodn-19" edge="1">
          <mxGeometry relative="1" as="geometry">
            <Array as="points">
              <mxPoint x="100" y="790" />
              <mxPoint x="100" y="726" />
            </Array>
          </mxGeometry>
        </mxCell>
        <mxCell id="kc-rsHX5RpPGUYvPVodn-46" value="&lt;b&gt;&lt;font style=&quot;font-size: 14px;&quot;&gt;Failed&lt;/font&gt;&lt;/b&gt;" style="edgeLabel;html=1;align=center;verticalAlign=middle;resizable=0;points=[];" parent="kc-rsHX5RpPGUYvPVodn-45" vertex="1" connectable="0">
          <mxGeometry x="-0.2579" y="4" relative="1" as="geometry">
            <mxPoint y="-4" as="offset" />
          </mxGeometry>
        </mxCell>
        <mxCell id="kc-rsHX5RpPGUYvPVodn-54" style="edgeStyle=orthogonalEdgeStyle;rounded=0;orthogonalLoop=1;jettySize=auto;html=1;" parent="1" source="kc-rsHX5RpPGUYvPVodn-26" target="kc-rsHX5RpPGUYvPVodn-27" edge="1">
          <mxGeometry relative="1" as="geometry">
            <Array as="points">
              <mxPoint x="540" y="790" />
              <mxPoint x="540" y="790" />
            </Array>
          </mxGeometry>
        </mxCell>
        <mxCell id="kc-rsHX5RpPGUYvPVodn-55" value="&lt;font style=&quot;font-size: 14px;&quot;&gt;&lt;b&gt;Successful&lt;/b&gt;&lt;/font&gt;" style="edgeLabel;html=1;align=center;verticalAlign=middle;resizable=0;points=[];" parent="kc-rsHX5RpPGUYvPVodn-54" vertex="1" connectable="0">
          <mxGeometry x="0.1549" y="-4" relative="1" as="geometry">
            <mxPoint x="22" y="-4" as="offset" />
          </mxGeometry>
        </mxCell>
        <mxCell id="kc-rsHX5RpPGUYvPVodn-26" value="&lt;b&gt;Verify&lt;/b&gt;" style="rounded=0;whiteSpace=wrap;html=1;fillColor=#008a00;fontColor=#ffffff;strokeColor=#005700;" parent="1" vertex="1">
          <mxGeometry x="313" y="780" width="74" height="20" as="geometry" />
        </mxCell>
        <mxCell id="kc-rsHX5RpPGUYvPVodn-47" style="edgeStyle=orthogonalEdgeStyle;rounded=0;orthogonalLoop=1;jettySize=auto;html=1;entryX=0.37;entryY=1.033;entryDx=0;entryDy=0;entryPerimeter=0;" parent="1" source="kc-rsHX5RpPGUYvPVodn-27" target="kc-rsHX5RpPGUYvPVodn-14" edge="1">
          <mxGeometry relative="1" as="geometry">
            <mxPoint x="84" y="590" as="targetPoint" />
            <Array as="points">
              <mxPoint x="745" y="970" />
              <mxPoint x="84" y="970" />
            </Array>
          </mxGeometry>
        </mxCell>
        <mxCell id="kc-rsHX5RpPGUYvPVodn-48" value="&lt;b&gt;&lt;font style=&quot;font-size: 14px;&quot;&gt;Save new Password&lt;/font&gt;&lt;/b&gt;" style="edgeLabel;html=1;align=center;verticalAlign=middle;resizable=0;points=[];" parent="kc-rsHX5RpPGUYvPVodn-47" vertex="1" connectable="0">
          <mxGeometry x="-0.2001" y="1" relative="1" as="geometry">
            <mxPoint as="offset" />
          </mxGeometry>
        </mxCell>
        <mxCell id="kc-rsHX5RpPGUYvPVodn-27" value="" style="rounded=0;whiteSpace=wrap;html=1;fillColor=#dae8fc;strokeColor=#6c8ebf;" parent="1" vertex="1">
          <mxGeometry x="600" y="560" width="290" height="319" as="geometry" />
        </mxCell>
        <mxCell id="kc-rsHX5RpPGUYvPVodn-31" value="04:00" style="text;html=1;align=center;verticalAlign=middle;whiteSpace=wrap;rounded=0;" parent="1" vertex="1">
          <mxGeometry x="407" y="730" width="60" height="30" as="geometry" />
        </mxCell>
        <mxCell id="kc-rsHX5RpPGUYvPVodn-36" value="&amp;nbsp;Enter New Password" style="rounded=1;whiteSpace=wrap;html=1;align=left;" parent="1" vertex="1">
          <mxGeometry x="625" y="655" width="240" height="40" as="geometry" />
        </mxCell>
        <mxCell id="kc-rsHX5RpPGUYvPVodn-38" value="&amp;nbsp;Repeat above password" style="rounded=1;whiteSpace=wrap;html=1;align=left;" parent="1" vertex="1">
          <mxGeometry x="625" y="720" width="240" height="40" as="geometry" />
        </mxCell>
        <mxCell id="kc-rsHX5RpPGUYvPVodn-39" value="&lt;b&gt;Confirm&lt;/b&gt;" style="rounded=0;whiteSpace=wrap;html=1;fillColor=#008a00;fontColor=#ffffff;strokeColor=#005700;" parent="1" vertex="1">
          <mxGeometry x="700" y="800" width="90" height="36" as="geometry" />
        </mxCell>
        <mxCell id="kc-rsHX5RpPGUYvPVodn-42" value="&lt;font style=&quot;&quot;&gt;&lt;span style=&quot;font-size: 14px;&quot;&gt;Didn&#39;t get any OTP ? &lt;/span&gt;&lt;font style=&quot;font-size: 14px;&quot; color=&quot;#d41750&quot;&gt;&lt;b style=&quot;&quot;&gt;&lt;u style=&quot;&quot;&gt;Try again&lt;/u&gt;&lt;/b&gt;&lt;/font&gt;&lt;/font&gt;" style="text;html=1;align=center;verticalAlign=middle;whiteSpace=wrap;rounded=0;" parent="1" vertex="1">
          <mxGeometry x="237" y="806" width="230" height="30" as="geometry" />
        </mxCell>
        <mxCell id="kc-rsHX5RpPGUYvPVodn-49" style="edgeStyle=orthogonalEdgeStyle;rounded=0;orthogonalLoop=1;jettySize=auto;html=1;entryX=0.537;entryY=-0.001;entryDx=0;entryDy=0;entryPerimeter=0;" parent="1" source="kc-rsHX5RpPGUYvPVodn-27" target="PENeMZDu9xXlpUDBOP-r-2" edge="1">
          <mxGeometry relative="1" as="geometry">
            <Array as="points">
              <mxPoint x="730" y="70" />
              <mxPoint x="196" y="70" />
            </Array>
          </mxGeometry>
        </mxCell>
        <mxCell id="kc-rsHX5RpPGUYvPVodn-50" value="&lt;b&gt;&lt;font style=&quot;font-size: 14px;&quot;&gt;Access System&lt;/font&gt;&lt;/b&gt;" style="rounded=0;whiteSpace=wrap;html=1;fillColor=#cce5ff;strokeColor=#36393d;" parent="1" vertex="1">
          <mxGeometry x="840" y="259.5" width="120" height="60" as="geometry" />
        </mxCell>
        <mxCell id="kc-rsHX5RpPGUYvPVodn-56" style="edgeStyle=orthogonalEdgeStyle;rounded=0;orthogonalLoop=1;jettySize=auto;html=1;entryX=0.002;entryY=0.169;entryDx=0;entryDy=0;entryPerimeter=0;" parent="1" source="kc-rsHX5RpPGUYvPVodn-2" target="kc-rsHX5RpPGUYvPVodn-19" edge="1">
          <mxGeometry relative="1" as="geometry" />
        </mxCell>
      </root>
    </mxGraphModel>
  </diagram>
</mxfile>
